<?xml version="1.0" encoding="UTF-8"?>
<svg width="79px" height="66px" viewBox="0 0 79 66" version="1.1" xmlns="http://www.w3.org/2000/svg" xmlns:xlink="http://www.w3.org/1999/xlink">
    <!-- Generator: Sketch 42 (36781) - http://www.bohemiancoding.com/sketch -->
    <title>FSDE Logo</title>
    <desc>Created with Sketch.</desc>
    <defs>
        <polygon id="path-1" points="0 65.6167652 78.6381469 65.6167652 78.6381469 0.213532524 0 0.213532524"></polygon>
    </defs>
    <g id="Page-1" stroke="none" stroke-width="1" fill="none" fill-rule="evenodd">
        <g id="01-Landing" transform="translate(-82.000000, -41.000000)">
            <g id="FSDE-Logo" transform="translate(82.000000, 41.000000)">
                <g id="Page-1">
                    <polygon id="Fill-1" fill="#3766AF" points="0.0591671329 52.7720054 0.0591671329 57.627646 0.799446853 57.627646 0.799446853 55.6174375 2.69544685 55.6235543 2.70152378 54.8989895 0.799446853 54.8989895 0.799446853 53.5171449 3.04127902 53.52493 3.04846084 52.7792344 0.799446853 52.7720054"></polygon>
                    <polygon id="Fill-2" fill="#3766AF" points="7.05116434 56.8823953 7.05116434 57.6275348 4.29279371 57.6275348 4.19114336 57.6275348 4.19114336 52.7718942 4.93142308 52.7718942 4.93142308 56.8823953"></polygon>
                    <g id="Group-40" transform="translate(0.000000, 0.342542)">
                        <path d="M11.3390965,54.8642905 C11.3390965,53.8244316 10.7209077,53.1204415 9.77622238,53.1204415 C8.85253007,53.1204415 8.22771189,53.8383334 8.22771189,54.8642905 C8.22771189,55.8763457 8.86578881,56.6148123 9.77622238,56.6148123 C10.7280895,56.6148123 11.3390965,55.9102662 11.3390965,54.8642905 Z M12.1611385,54.8642905 C12.1611385,56.3345509 11.1556839,57.4083303 9.77622238,57.4083303 C8.43819441,57.4083303 7.39848811,56.3000743 7.39848811,54.8642905 C7.39848811,53.4212777 8.41112448,52.3335964 9.77622238,52.3335964 C11.1424252,52.3335964 12.1611385,53.4146048 12.1611385,54.8642905 Z" id="Fill-3" fill="#3766AF"></path>
                        <path d="M15.5663699,55.3704293 L14.8664189,53.5031319 L14.1670203,55.3704293 L15.5663699,55.3704293 Z M15.8177336,56.0471717 L13.9156566,56.0471717 L13.453258,57.284993 L12.5770762,57.284993 L14.4658944,52.4293524 L15.2674958,52.4293524 L17.156314,57.284993 L16.2801322,57.284993 L15.8177336,56.0471717 Z" id="Fill-5" fill="#3766AF"></path>
                        <polygon id="Fill-7" fill="#3766AF" points="20.7921923 53.1819434 19.2635699 53.1819434 19.2635699 57.2852155 18.5161084 57.2852155 18.5161084 53.1819434 17.0211853 53.1819434 17.0211853 52.4295749 20.7921923 52.4295749"></polygon>
                        <mask id="mask-2" fill="white">
                            <use xlink:href="#path-1"></use>
                        </mask>
                        <g id="Clip-10"></g>
                        <polygon id="Fill-9" fill="#3766AF" mask="url(#mask-2)" points="21.7647762 57.2851043 22.5050559 57.2851043 22.5050559 52.4294636 21.7647762 52.4294636"></polygon>
                        <polygon id="Fill-11" fill="#3766AF" mask="url(#mask-2)" points="27.7102168 52.4295749 27.7102168 57.2852155 26.9693846 57.2852155 24.6391608 53.7152186 24.6391608 57.2852155 23.8988811 57.2852155 23.8988811 52.4295749 24.6391608 52.4295749 26.9693846 55.9995717 26.9693846 52.4295749"></polygon>
                        <path d="M31.1357783,54.5154095 L33.4455615,54.5154095 L33.4455615,57.2985613 L32.7052818,57.2985613 L32.6986524,56.8203374 C32.3517154,57.1895707 31.8357294,57.3947621 31.2716804,57.3947621 C29.743058,57.3947621 28.8116315,56.2798332 28.8116315,54.8779699 C28.8116315,53.4761067 29.8855895,52.3267011 31.2307993,52.3267011 C32.3108343,52.3267011 33.1267993,52.9016819 33.4864427,53.7836157 L32.7323517,54.0499753 C32.4671769,53.4349572 31.9036804,53.0790696 31.2307993,53.0790696 C30.3137364,53.0790696 29.6275965,53.8659147 29.6275965,54.8779699 C29.6275965,55.8833522 30.2999252,56.6012441 31.2716804,56.6012441 C31.8423587,56.6012441 32.603079,56.3137537 32.6986524,55.260549 L32.6986524,55.2127266 L31.1357783,55.2127266 L31.1357783,54.5154095 Z" id="Fill-12" fill="#3766AF" mask="url(#mask-2)"></path>
                        <path d="M39.0116364,53.7220027 C38.909986,53.3116199 38.5636014,53.0791808 38.0398811,53.0791808 C37.5714056,53.0791808 37.2791608,53.4005918 37.2449091,53.7220027 C37.2112098,54.0022641 37.3675524,54.2964274 37.7476364,54.3714975 C38.019993,54.4332217 38.2232937,54.4743712 38.440958,54.5155207 C39.2425594,54.6723336 39.7044056,55.1855902 39.7044056,55.9240569 C39.7044056,56.7720701 39.0458881,57.3670696 38.1144615,57.3670696 C37.1703287,57.3670696 36.4096084,56.8198925 36.3007762,56.0475053 L37.0548671,55.9379587 C37.1095594,56.3138649 37.5443357,56.6152572 38.1144615,56.6152572 C38.6718811,56.6152572 38.9707552,56.2526968 38.9569441,55.9034821 C38.9436853,55.6371225 38.747014,55.3774358 38.3525664,55.281235 L37.578035,55.123866 C36.8918951,54.9737259 36.4908182,54.4743712 36.4908182,53.7903998 C36.4908182,52.9629613 37.1703287,52.3334852 38.0398811,52.3334852 C38.909986,52.3334852 39.5552448,52.7783446 39.7519161,53.5240403 L39.0116364,53.7220027 Z" id="Fill-13" fill="#3766AF" mask="url(#mask-2)"></path>
                        <polygon id="Fill-14" fill="#3766AF" mask="url(#mask-2)" points="44.1967986 53.1819434 42.6681762 53.1819434 42.6681762 57.2852155 41.9207147 57.2852155 41.9207147 53.1819434 40.4257916 53.1819434 40.4257916 52.4295749 44.1967986 52.4295749"></polygon>
                        <path d="M48.4982105,52.4295749 L48.4982105,55.6303384 C48.4982105,56.615146 47.723679,57.3947621 46.7452944,57.3947621 C45.7669098,57.3947621 44.9995601,56.615146 44.9995601,55.6303384 L44.9995601,52.4295749 L45.7470217,52.4295749 L45.7470217,55.6303384 C45.7470217,56.1702865 46.2083154,56.6423936 46.7452944,56.6423936 C47.2822734,56.6423936 47.750749,56.1702865 47.750749,55.6303384 L47.750749,52.4295749 L48.4982105,52.4295749 Z" id="Fill-15" fill="#3766AF" mask="url(#mask-2)"></path>
                        <path d="M53.0313741,54.8572283 C53.0313741,53.8045797 52.3927448,53.1067065 51.3668497,53.1067065 L50.4696748,53.1067065 L50.4696748,56.6010773 L51.3668497,56.6010773 C52.3993741,56.6010773 53.0313741,55.9171059 53.0313741,54.8572283 M53.8467867,54.8572283 C53.8467867,56.3002411 52.8208916,57.2850487 51.3668497,57.2850487 L50.1984231,57.2850487 L49.7293951,57.2850487 L49.7293951,52.4227351 L50.4696748,52.4227351 L51.3668497,52.4227351 C52.8070804,52.4227351 53.8467867,53.4214445 53.8467867,54.8572283" id="Fill-16" fill="#3766AF" mask="url(#mask-2)"></path>
                        <polygon id="Fill-17" fill="#3766AF" mask="url(#mask-2)" points="54.9552727 57.2851043 55.6955524 57.2851043 55.6955524 52.4294636 54.9552727 52.4294636"></polygon>
                        <path d="M60.7440392,54.8642905 C60.7440392,53.8244316 60.1258503,53.1204415 59.181165,53.1204415 C58.2574727,53.1204415 57.6326545,53.8383334 57.6326545,54.8642905 C57.6326545,55.8763457 58.2707315,56.6148123 59.181165,56.6148123 C60.1330322,56.6148123 60.7440392,55.9102662 60.7440392,54.8642905 M61.5660811,54.8642905 C61.5660811,56.3345509 60.5606266,57.4083303 59.181165,57.4083303 C57.8431371,57.4083303 56.8034308,56.3000743 56.8034308,54.8642905 C56.8034308,53.4212777 57.8160671,52.3335964 59.181165,52.3335964 C60.5473678,52.3335964 61.5660811,53.4146048 61.5660811,54.8642905" id="Fill-18" fill="#3766AF" mask="url(#mask-2)"></path>
                        <polygon id="Fill-19" fill="#3766AF" mask="url(#mask-2)" points="65.3589098 53.1748812 65.3589098 54.5561697 67.2615392 54.5561697 67.2549098 55.2812906 65.3589098 55.2746177 65.3589098 57.2853823 64.6186301 57.2853823 64.6186301 52.4297417 65.3589098 52.4297417 67.6079238 52.4364146 67.6012944 53.1821102"></polygon>
                        <path d="M72.4055993,54.8642905 C72.4055993,53.8244316 71.7874105,53.1204415 70.8427252,53.1204415 C69.9190329,53.1204415 69.2942147,53.8383334 69.2942147,54.8642905 C69.2942147,55.8763457 69.9322916,56.6148123 70.8427252,56.6148123 C71.7940399,56.6148123 72.4055993,55.9102662 72.4055993,54.8642905 M73.2276413,54.8642905 C73.2276413,56.3345509 72.2221867,57.4083303 70.8427252,57.4083303 C69.5046972,57.4083303 68.4649909,56.3000743 68.4649909,54.8642905 C68.4649909,53.4212777 69.4776273,52.3335964 70.8427252,52.3335964 C72.2083755,52.3335964 73.2276413,53.4146048 73.2276413,54.8642905" id="Fill-20" fill="#3766AF" mask="url(#mask-2)"></path>
                        <path d="M75.0634245,54.6658276 L75.9810399,54.6658276 C76.3340538,54.6658276 76.5583476,54.5629538 76.6942497,54.3855661 C76.8914734,54.1053047 76.863851,53.6265247 76.6401098,53.3868567 C76.5036552,53.2367167 76.279914,53.1544177 75.9810399,53.1544177 L75.0634245,53.1477448 L75.0634245,54.6658276 Z M76.700879,55.2063318 L77.6455643,57.2849374 L76.7959,57.2849374 L75.9401587,55.3153223 L75.0634245,55.3153223 L75.0634245,57.2849374 L74.3159629,57.2849374 L74.3159629,52.4298529 L75.0634245,52.4298529 L76.0213685,52.4365258 C76.5445364,52.4431987 76.9864944,52.5799929 77.2715573,52.8741562 C77.7610259,53.3457072 77.7676552,54.317169 77.3262497,54.8092947 C77.169907,54.9939114 76.9522427,55.1240328 76.700879,55.2063318 L76.700879,55.2063318 Z" id="Fill-21" fill="#3766AF" mask="url(#mask-2)"></path>
                        <path d="M3.31352517,63.0658301 C3.31352517,62.0131815 2.6748958,61.3153082 1.6490007,61.3153082 L0.751825874,61.3153082 L0.751825874,64.809679 L1.6490007,64.809679 C2.68152517,64.809679 3.31352517,64.1257076 3.31352517,63.0658301 M4.12893776,63.0658301 C4.12893776,64.5088428 3.10304266,65.4936504 1.6490007,65.4936504 L0.480021678,65.4936504 L0.0115461538,65.4936504 L0.0115461538,60.6313369 L0.751825874,60.6313369 L1.6490007,60.6313369 C3.08923147,60.6313369 4.12893776,61.6294902 4.12893776,63.0658301" id="Fill-22" fill="#3766AF" mask="url(#mask-2)"></path>
                        <path d="M7.52698741,63.579031 L6.82703636,61.7117336 L6.12763776,63.579031 L7.52698741,63.579031 Z M7.77835105,64.2557734 L5.87627413,64.2557734 L5.41387552,65.4935948 L4.53769371,65.4935948 L6.42651189,60.6379541 L7.22811329,60.6379541 L9.11693147,65.4935948 L8.24074965,65.4935948 L7.77835105,64.2557734 Z" id="Fill-23" fill="#3766AF" mask="url(#mask-2)"></path>
                        <path d="M10.8095755,62.8744293 L11.7271909,62.8744293 C12.0802049,62.8744293 12.3044986,62.7715556 12.4404007,62.5941679 C12.6376245,62.3139064 12.6100021,61.8351265 12.3862608,61.5954585 C12.2498063,61.4453184 12.026065,61.3630194 11.7271909,61.3630194 L10.8095755,61.3563465 L10.8095755,62.8744293 Z M12.4470301,63.4149335 L13.3917154,65.4935392 L12.542051,65.4935392 L11.6863098,63.5239241 L10.8095755,63.5239241 L10.8095755,65.4935392 L10.0626664,65.4935392 L10.0626664,60.6384546 L10.8095755,60.6384546 L11.7675196,60.6451275 C12.2906874,60.6518004 12.7326455,60.7885947 13.0177084,61.082758 C13.5071769,61.554309 13.5138063,62.5257707 13.0724007,63.0178965 C12.916058,63.2025131 12.6983937,63.3326345 12.4470301,63.4149335 L12.4470301,63.4149335 Z" id="Fill-24" fill="#3766AF" mask="url(#mask-2)"></path>
                        <polygon id="Fill-25" fill="#3766AF" mask="url(#mask-2)" points="15.7705545 63.7088188 15.2540161 64.3516406 15.2540161 65.507163 14.5137364 65.507163 14.5137364 60.6381766 15.2540161 60.6381766 15.2540161 63.1277211 17.2041559 60.6381766 18.2167923 60.6381766 16.2600231 63.0932445 18.2234217 65.5416396 17.2107853 65.5416396"></polygon>
                        <polygon id="Fill-26" fill="#3766AF" mask="url(#mask-2)" points="24.1152748 65.4937616 21.8728902 65.4870887 21.8728902 65.4937616 21.1326105 65.4937616 21.1326105 60.638121 21.8728902 60.638121 24.1219042 60.6447939 24.1152748 61.3904895 21.8728902 61.3832605 21.8728902 62.6761332 23.8976105 62.6828061 23.8909811 63.407927 21.8728902 63.4012541 21.8728902 64.7486221 24.1219042 64.7486221"></polygon>
                        <path d="M28.8992497,62.2385027 C28.7092077,61.7324752 28.2064804,61.3287652 27.5407811,61.3287652 C26.6297951,61.3287652 25.9436552,62.0811337 25.9436552,63.0659413 C25.9436552,64.0440759 26.6297951,64.7825426 27.5407811,64.7825426 C28.1926692,64.7825426 28.7224664,64.4133093 28.9605713,63.9206275 L29.700851,64.276515 C29.3406552,65.0767059 28.5119839,65.5894064 27.5407811,65.5894064 C26.2154594,65.5894064 25.1282427,64.4611317 25.1282427,63.0659413 C25.1282427,61.6707509 26.2154594,60.5352472 27.5407811,60.5352472 C28.8992497,60.5352472 29.4837392,61.5200548 29.6533406,61.9582413 L28.8992497,62.2385027 Z" id="Fill-27" fill="#3766AF" mask="url(#mask-2)"></path>
                        <path d="M34.4242776,63.0728922 C34.4242776,62.0330333 33.8060888,61.3290433 32.8614035,61.3290433 C31.9377112,61.3290433 31.312893,62.0469352 31.312893,63.0728922 C31.312893,64.0849474 31.9509699,64.8239701 32.8614035,64.8239701 C33.8132706,64.8239701 34.4242776,64.1188679 34.4242776,63.0728922 M35.2463196,63.0728922 C35.2463196,64.5431526 34.240865,65.616932 32.8614035,65.616932 C31.5233755,65.616932 30.4836692,64.5092321 30.4836692,63.0728922 C30.4836692,61.6298794 31.4963056,60.5421982 32.8614035,60.5421982 C34.2276063,60.5421982 35.2463196,61.6232066 35.2463196,63.0728922" id="Fill-28" fill="#3766AF" mask="url(#mask-2)"></path>
                        <polygon id="Fill-29" fill="#3766AF" mask="url(#mask-2)" points="39.2220636 64.7484552 39.2220636 65.4935948 36.463693 65.4935948 36.3620427 65.4935948 36.3620427 60.6379541 37.1023224 60.6379541 37.1023224 64.7484552"></polygon>
                        <path d="M43.510272,63.0728922 C43.510272,62.0330333 42.8920832,61.3290433 41.9473979,61.3290433 C41.0237056,61.3290433 40.3988874,62.0469352 40.3988874,63.0728922 C40.3988874,64.0849474 41.0369643,64.8239701 41.9473979,64.8239701 C42.899265,64.8239701 43.510272,64.1188679 43.510272,63.0728922 M44.332314,63.0728922 C44.332314,64.5431526 43.3268594,65.616932 41.9473979,65.616932 C40.6093699,65.616932 39.5696636,64.5092321 39.5696636,63.0728922 C39.5696636,61.6298794 40.5823,60.5421982 41.9473979,60.5421982 C43.3136007,60.5421982 44.332314,61.6232066 44.332314,63.0728922" id="Fill-30" fill="#3766AF" mask="url(#mask-2)"></path>
                        <path d="M47.4793867,62.7240112 L49.7891699,62.7240112 L49.7891699,65.507163 L49.0488902,65.507163 L49.0422608,65.0289391 C48.6953238,65.3981724 48.1793378,65.6033638 47.6152888,65.6033638 C46.0866664,65.6033638 45.1552399,64.4884349 45.1552399,63.0865716 C45.1552399,61.6847084 46.2291979,60.5353028 47.5744077,60.5353028 C48.6544427,60.5353028 49.4704077,61.1102836 49.830051,61.9922174 L49.0759601,62.2591331 C48.8107853,61.6435589 48.2472888,61.2876713 47.5744077,61.2876713 C46.6573448,61.2876713 45.9712049,62.0739604 45.9712049,63.0865716 C45.9712049,64.0919539 46.6435336,64.8098458 47.6152888,64.8098458 C48.1859671,64.8098458 48.9466874,64.5223554 49.0422608,63.4691507 L49.0422608,63.4213284 L47.4793867,63.4213284 L47.4793867,62.7240112 Z" id="Fill-31" fill="#3766AF" mask="url(#mask-2)"></path>
                        <polygon id="Fill-32" fill="#3766AF" mask="url(#mask-2)" points="51.0953217 65.4938728 51.8356014 65.4938728 51.8356014 60.6382322 51.0953217 60.6382322"></polygon>
                        <polygon id="Fill-33" fill="#3766AF" mask="url(#mask-2)" points="56.2591594 65.4937616 54.0167748 65.4870887 54.0167748 65.4937616 53.2764951 65.4937616 53.2764951 60.638121 54.0167748 60.638121 56.2657888 60.6447939 56.2591594 61.3904895 54.0167748 61.3832605 54.0167748 62.6761332 56.0420476 62.6828061 56.0348657 63.407927 54.0167748 63.4012541 54.0167748 64.7486221 56.2657888 64.7486221"></polygon>
                        <path d="M59.8813923,61.9306044 C59.7791895,61.5202216 59.4333573,61.2877826 58.9096371,61.2877826 C58.4411615,61.2877826 58.1489168,61.6091935 58.114665,61.9306044 C58.0809657,62.2108659 58.2373084,62.5050292 58.6173923,62.5806553 C58.889749,62.6418234 59.0930497,62.6829729 59.310714,62.7241224 C60.1123154,62.8814914 60.5741615,63.3941919 60.5741615,64.1332146 C60.5741615,64.9806719 59.9150916,65.5756713 58.9842175,65.5756713 C58.0400846,65.5756713 57.2793643,65.0284942 57.1705322,64.2561071 L57.9246231,64.1465604 C57.9787629,64.5224666 58.4135392,64.8238589 58.9842175,64.8238589 C59.5416371,64.8238589 59.8405112,64.4612985 59.8272524,64.1120838 C59.8134413,63.8457242 59.6162175,63.5860376 59.2223224,63.4898367 L58.4477909,63.3324677 C57.761651,63.1823276 57.3605741,62.6829729 57.3605741,61.9990016 C57.3605741,61.171563 58.0400846,60.5420869 58.9096371,60.5420869 C59.7791895,60.5420869 60.4250007,60.9869464 60.621672,61.732642 L59.8813923,61.9306044 Z" id="Fill-34" fill="#3766AF" mask="url(#mask-2)"></path>
                        <path d="M78.6384231,49.1128698 L78.6384231,37.0143617 C78.3837448,36.9754365 78.1086259,36.9509692 77.7948357,36.9509692 C76.3711783,36.9509692 75.6463671,37.3941604 74.8066469,37.907417 C73.8807448,38.4757249 72.8283322,39.120215 70.7108007,39.120215 C68.5916119,39.120215 67.5403042,38.4757249 66.6121923,37.907417 C65.772472,37.3941604 65.0487657,36.9509692 63.6245559,36.9509692 C62.2008986,36.9509692 61.4766399,37.3941604 60.6369196,37.907417 C59.7110175,38.4757249 58.6591573,39.120215 56.5416259,39.120215 C54.4218846,39.120215 53.3683671,38.4757249 52.4408077,37.907417 C51.6016399,37.3941604 50.8757238,36.9509692 49.4504091,36.9509692 C48.0261993,36.9509692 47.3013881,37.3941604 46.4627727,37.907417 C45.5330035,38.4757249 44.4833531,39.120215 42.362507,39.120215 C40.2438706,39.120215 39.1925629,38.4757249 38.2666608,37.907417 C37.4269406,37.3941604 36.7015769,36.9509692 35.2779196,36.9509692 C33.8542622,36.9509692 33.1300035,37.3941604 32.2908357,37.907417 C31.3621713,38.4757249 30.3108636,39.120215 28.1927797,39.120215 C26.0741434,39.120215 25.0217308,38.4757249 24.0958287,37.907417 C23.2561084,37.3941604 22.5312972,36.9509692 21.1081923,36.9509692 C19.6828776,36.9509692 18.9580664,37.3941604 18.119451,37.907417 C17.1907867,38.4757249 16.139479,39.120215 14.0202902,39.120215 C11.8988916,39.120215 10.8475839,38.4757249 9.92002448,37.907417 C9.0791993,37.3941604 8.35549301,36.9509692 6.93128322,36.9509692 C5.50762587,36.9509692 4.78336713,37.3941604 3.9453042,37.907417 C3.04205245,38.4612669 2.01173776,39.0818458 0.000276223776,39.1135421 L0.000276223776,49.1128698 L78.6384231,49.1128698 Z" id="Fill-35" fill="#3766AF" mask="url(#mask-2)"></path>
                        <path d="M7.19137552,7.69773628 L7.19137552,10.7138832 L10.7436133,10.7138832 L10.7436133,14.7203984 L7.19137552,14.7203984 C7.19137552,21.5706775 7.23391399,30.7475713 7.23391399,31.3937296 L2.52595594,31.3937296 C2.52595594,30.7475713 2.48286503,21.5706775 2.48286503,14.7203984 L0.000165734266,14.7203984 L0.000165734266,10.7138832 L2.48286503,10.7138832 L2.48286503,7.69773628 C2.48286503,2.78648822 6.50634056,-0.574424733 11.2142986,0.374237991 L11.1292217,5.11254694 C8.68961329,4.59595394 7.19137552,5.37112149 7.19137552,7.69773628" id="Fill-36" fill="#3766AF" mask="url(#mask-2)"></path>
                        <path d="M25.2542007,16.443617 C24.8691448,15.0222911 23.5421657,14.1170022 21.4445224,14.1170022 C19.6905014,14.1170022 18.6204105,14.9794734 18.4916902,16.1855985 C18.3204315,17.2627144 18.8772986,18.0812557 20.2893545,18.4254657 C21.8301308,18.8136056 23.3283685,19.2011893 24.3984594,19.4169462 C28.036879,20.321679 29.3633056,22.60492 29.3633056,25.5348754 C29.3633056,29.3690076 26.1530329,32.0826501 21.7875923,32.0826501 C17.4215993,32.0826501 13.9544385,29.7999651 13.3124944,26.310043 L17.7215783,25.6205108 C17.9784664,27.0429489 19.5192427,28.0333171 21.7875923,28.0333171 C23.7565154,28.0333171 24.9116832,27.0857666 24.9116832,25.6638846 C24.9116832,24.6729603 24.355921,23.9839842 22.7295154,23.6386621 C20.8031308,23.2082606 19.304893,22.777303 18.8342077,22.6905555 C15.8382846,21.8725702 14.0406203,19.5893292 14.0406203,16.6593738 C14.0406203,12.9542509 17.2934315,10.0676693 21.4445224,10.0676693 C25.5536273,10.0676693 28.7213615,12.1790833 29.5351168,15.4532487 L25.2542007,16.443617 Z" id="Fill-37" fill="#3766AF" mask="url(#mask-2)"></path>
                        <path d="M48.8398441,21.2264675 C48.9685643,16.5298641 46.0151797,14.0742401 42.8479979,14.1170578 C39.8940608,14.1609877 36.9832147,16.3580371 36.7699699,20.8811453 C36.6837881,25.4053657 39.5090049,28.0333728 42.804907,28.0333728 C45.9720888,28.0333728 48.7973056,25.5777487 48.8398441,21.2264675 L48.8398441,21.2264675 Z M53.7627042,0.804639485 L53.7627042,31.3937296 L49.0111028,31.3937296 L49.0111028,28.9381056 C47.2139909,31.0923374 44.6456622,32.1694533 41.9486133,32.1266355 C36.6837881,32.1266355 31.9752776,27.818172 32.2752566,20.5797531 L32.2752566,20.6231269 C32.6183266,13.5576471 37.3262846,10.1972902 41.9917042,9.98097728 C44.7307392,9.85196805 47.2139909,10.8862662 49.0111028,12.7813674 L49.0111028,0.804639485 L53.7627042,0.804639485 Z" id="Fill-38" fill="#3766AF" mask="url(#mask-2)"></path>
                        <path d="M74.0095755,19.3739616 C73.8808552,18.5120465 73.3245406,17.2191738 72.640058,16.5301977 C71.698135,15.1945073 70.1142678,14.4187837 68.2315266,14.4187837 C65.4494007,14.4187837 63.0948692,16.5301977 62.4529252,19.3739616 L74.0095755,19.3739616 Z M78.5037364,22.9067015 L62.4954636,22.9067015 C63.266128,25.620344 65.5344776,27.559375 68.2315266,27.559375 C70.671135,27.559375 72.5975196,26.3104322 73.4101699,24.5004104 L77.4767364,26.0941193 C76.0210371,29.6707891 72.4257084,32.0396655 68.2315266,32.0396655 C62.5380021,32.0396655 57.9156734,26.9988522 57.9156734,20.9676705 C57.9156734,14.9364888 62.5380021,10.0241286 68.2315266,10.0241286 C72.5113378,10.0241286 76.1922958,12.4808648 77.6905336,16.314997 C78.5037364,18.4252989 78.5037364,21.0972358 78.5037364,21.0972358 L78.5037364,22.9067015 Z" id="Fill-39" fill="#3766AF" mask="url(#mask-2)"></path>
                    </g>
                </g>
            </g>
        </g>
    </g>
</svg>