<?xml version="1.0" encoding="UTF-8"?>
<svg width="178px" height="178px" viewBox="0 0 178 178" version="1.1" xmlns="http://www.w3.org/2000/svg" xmlns:xlink="http://www.w3.org/1999/xlink">
    <!-- Generator: Sketch 42 (36781) - http://www.bohemiancoding.com/sketch -->
    <title>Coming soon badge</title>
    <desc>Created with Sketch.</desc>
    <defs>
        <polygon id="path-1" points="136.923985 12.6107209 136.923985 0.0419656482 0.374247303 0.0419656482 0.374247303 12.6107209 136.923985 12.6107209"></polygon>
        <polygon id="path-3" points="136.923985 12.6107209 136.923985 0.0419656482 0.374247303 0.0419656482 0.374247303 12.6107209 136.923985 12.6107209"></polygon>
        <polygon id="path-5" points="136.923985 12.6107209 136.923985 0.0419656482 0.374247303 0.0419656482 0.374247303 12.6107209 136.923985 12.6107209"></polygon>
        <polygon id="path-7" points="136.923985 12.6107209 136.923985 0.0419656482 0.374247303 0.0419656482 0.374247303 12.6107209 136.923985 12.6107209"></polygon>
        <polygon id="path-9" points="136.923985 12.6107209 136.923985 0.0419656482 0.374247303 0.0419656482 0.374247303 12.6107209 136.923985 12.6107209"></polygon>
    </defs>
    <g id="Page-1" stroke="none" stroke-width="1" fill="none" fill-rule="evenodd">
        <g id="04-Introduction" transform="translate(-614.000000, -211.000000)">
            <g id="Coming-soon-badge" transform="translate(614.000000, 211.000000)">
                <circle id="Oval" fill="#3366B3" cx="89" cy="89" r="89"></circle>
                <g id="noun_13420_cc" transform="translate(20.000000, 37.000000)">
                    <g id="Group-Copy" opacity="0.193271922" transform="translate(0.000000, 15.000000)">
                        <g id="wave" transform="translate(0.000000, 51.806633)">
                            <mask id="mask-2" fill="white">
                                <use xlink:href="#path-1"></use>
                            </mask>
                            <g id="Clip-2"></g>
                            <path d="M0.374247303,6.37014105 C3.67524181,3.48368914 6.73525239,0.299845224 11.6794661,0.15035405 C16.212875,0.0135855304 19.7014812,1.76772132 22.9830676,4.69711218 C25.2538154,6.72319467 27.8625876,8.81448076 30.699405,9.69552448 C34.8818508,10.9932351 38.5241044,9.09437913 41.783048,6.15226562 C44.21553,3.95601764 47.0086792,1.72637269 50.0541337,0.699018462 C55.0630411,-0.988323395 59.6433529,0.689476473 63.4521928,4.41244281 C66.0836078,6.98400906 68.6438598,9.69234382 72.795576,9.99450683 C77.0378634,10.3046215 80.2127053,8.590244 82.984829,5.66244347 C87.3726772,1.02503645 92.5999257,-1.37000299 98.9916603,1.00118147 C101.204184,1.82179259 103.245269,3.39463057 105.02111,4.99450419 C112.730978,11.9347114 116.732282,12.0460346 124.534338,5.05175613 C127.354982,2.52312884 130.245172,0.420710427 134.267501,0.166257367 C139.265087,-0.151808959 143.048049,2.00627106 146.313462,5.39367743 C148.972372,8.15131247 151.9127,10.115372 156.04986,10.0469878 C160.366545,9.97542285 163.138669,7.4388439 165.847716,4.71142516 C168.951395,1.58642351 172.577475,-0.0675213826 177.112501,0.167847698 C181.712221,0.404807111 184.942053,2.91753108 187.752993,6.09819434 C188.328766,6.74863998 188.255986,7.95252102 187.83386,9.34883219 C186.801996,8.38191056 185.763662,7.41975992 184.73665,6.44647697 C179.126092,1.12363701 173.014157,1.08387872 167.528134,6.54189687 C163.183954,10.8675989 158.401475,14.0005522 151.988715,11.8536045 C149.551381,11.0377644 147.190062,9.4601554 145.302624,7.70283895 C137.859617,0.773764049 132.904082,0.546346626 125.480483,7.58833508 C121.061906,11.7788589 116.16783,13.8908193 110.269384,11.6325484 C107.870866,10.7133367 105.745679,8.85105839 103.7984,7.09374194 C96.9586617,0.915303564 91.6246686,0.878725936 84.9159351,7.18439084 C77.144608,14.488784 70.3081044,14.4681097 62.4381195,6.82338556 C59.1160995,3.59501236 55.4463511,1.57847185 50.8628046,2.96683136 C48.5338325,3.67293861 46.2727887,5.21396996 44.4743047,6.89017949 C36.4264122,14.3917738 29.4961028,14.4903743 21.6681687,6.94743143 C15.4284643,0.934387543 9.71277855,0.953471523 3.44396194,6.99673171 C2.44444474,7.96047268 1.39802463,8.87968436 0.374247303,9.81957035 L0.374247303,6.37014105" id="Fill-1" fill="#FFFFFF" mask="url(#mask-2)"></path>
                        </g>
                        <g id="wave" transform="translate(0.000000, 70.806633)">
                            <mask id="mask-4" fill="white">
                                <use xlink:href="#path-3"></use>
                            </mask>
                            <g id="Clip-2"></g>
                            <path d="M0.374247303,6.37014105 C3.67524181,3.48368914 6.73525239,0.299845224 11.6794661,0.15035405 C16.212875,0.0135855304 19.7014812,1.76772132 22.9830676,4.69711218 C25.2538154,6.72319467 27.8625876,8.81448076 30.699405,9.69552448 C34.8818508,10.9932351 38.5241044,9.09437913 41.783048,6.15226562 C44.21553,3.95601764 47.0086792,1.72637269 50.0541337,0.699018462 C55.0630411,-0.988323395 59.6433529,0.689476473 63.4521928,4.41244281 C66.0836078,6.98400906 68.6438598,9.69234382 72.795576,9.99450683 C77.0378634,10.3046215 80.2127053,8.590244 82.984829,5.66244347 C87.3726772,1.02503645 92.5999257,-1.37000299 98.9916603,1.00118147 C101.204184,1.82179259 103.245269,3.39463057 105.02111,4.99450419 C112.730978,11.9347114 116.732282,12.0460346 124.534338,5.05175613 C127.354982,2.52312884 130.245172,0.420710427 134.267501,0.166257367 C139.265087,-0.151808959 143.048049,2.00627106 146.313462,5.39367743 C148.972372,8.15131247 151.9127,10.115372 156.04986,10.0469878 C160.366545,9.97542285 163.138669,7.4388439 165.847716,4.71142516 C168.951395,1.58642351 172.577475,-0.0675213826 177.112501,0.167847698 C181.712221,0.404807111 184.942053,2.91753108 187.752993,6.09819434 C188.328766,6.74863998 188.255986,7.95252102 187.83386,9.34883219 C186.801996,8.38191056 185.763662,7.41975992 184.73665,6.44647697 C179.126092,1.12363701 173.014157,1.08387872 167.528134,6.54189687 C163.183954,10.8675989 158.401475,14.0005522 151.988715,11.8536045 C149.551381,11.0377644 147.190062,9.4601554 145.302624,7.70283895 C137.859617,0.773764049 132.904082,0.546346626 125.480483,7.58833508 C121.061906,11.7788589 116.16783,13.8908193 110.269384,11.6325484 C107.870866,10.7133367 105.745679,8.85105839 103.7984,7.09374194 C96.9586617,0.915303564 91.6246686,0.878725936 84.9159351,7.18439084 C77.144608,14.488784 70.3081044,14.4681097 62.4381195,6.82338556 C59.1160995,3.59501236 55.4463511,1.57847185 50.8628046,2.96683136 C48.5338325,3.67293861 46.2727887,5.21396996 44.4743047,6.89017949 C36.4264122,14.3917738 29.4961028,14.4903743 21.6681687,6.94743143 C15.4284643,0.934387543 9.71277855,0.953471523 3.44396194,6.99673171 C2.44444474,7.96047268 1.39802463,8.87968436 0.374247303,9.81957035 L0.374247303,6.37014105" id="Fill-1" fill="#FFFFFF" mask="url(#mask-4)"></path>
                        </g>
                        <g id="wave" transform="translate(0.000000, 35.903316)">
                            <mask id="mask-6" fill="white">
                                <use xlink:href="#path-5"></use>
                            </mask>
                            <g id="Clip-2"></g>
                            <path d="M0.374247303,6.37014105 C3.67524181,3.48368914 6.73525239,0.299845224 11.6794661,0.15035405 C16.212875,0.0135855304 19.7014812,1.76772132 22.9830676,4.69711218 C25.2538154,6.72319467 27.8625876,8.81448076 30.699405,9.69552448 C34.8818508,10.9932351 38.5241044,9.09437913 41.783048,6.15226562 C44.21553,3.95601764 47.0086792,1.72637269 50.0541337,0.699018462 C55.0630411,-0.988323395 59.6433529,0.689476473 63.4521928,4.41244281 C66.0836078,6.98400906 68.6438598,9.69234382 72.795576,9.99450683 C77.0378634,10.3046215 80.2127053,8.590244 82.984829,5.66244347 C87.3726772,1.02503645 92.5999257,-1.37000299 98.9916603,1.00118147 C101.204184,1.82179259 103.245269,3.39463057 105.02111,4.99450419 C112.730978,11.9347114 116.732282,12.0460346 124.534338,5.05175613 C127.354982,2.52312884 130.245172,0.420710427 134.267501,0.166257367 C139.265087,-0.151808959 143.048049,2.00627106 146.313462,5.39367743 C148.972372,8.15131247 151.9127,10.115372 156.04986,10.0469878 C160.366545,9.97542285 163.138669,7.4388439 165.847716,4.71142516 C168.951395,1.58642351 172.577475,-0.0675213826 177.112501,0.167847698 C181.712221,0.404807111 184.942053,2.91753108 187.752993,6.09819434 C188.328766,6.74863998 188.255986,7.95252102 187.83386,9.34883219 C186.801996,8.38191056 185.763662,7.41975992 184.73665,6.44647697 C179.126092,1.12363701 173.014157,1.08387872 167.528134,6.54189687 C163.183954,10.8675989 158.401475,14.0005522 151.988715,11.8536045 C149.551381,11.0377644 147.190062,9.4601554 145.302624,7.70283895 C137.859617,0.773764049 132.904082,0.546346626 125.480483,7.58833508 C121.061906,11.7788589 116.16783,13.8908193 110.269384,11.6325484 C107.870866,10.7133367 105.745679,8.85105839 103.7984,7.09374194 C96.9586617,0.915303564 91.6246686,0.878725936 84.9159351,7.18439084 C77.144608,14.488784 70.3081044,14.4681097 62.4381195,6.82338556 C59.1160995,3.59501236 55.4463511,1.57847185 50.8628046,2.96683136 C48.5338325,3.67293861 46.2727887,5.21396996 44.4743047,6.89017949 C36.4264122,14.3917738 29.4961028,14.4903743 21.6681687,6.94743143 C15.4284643,0.934387543 9.71277855,0.953471523 3.44396194,6.99673171 C2.44444474,7.96047268 1.39802463,8.87968436 0.374247303,9.81957035 L0.374247303,6.37014105" id="Fill-1" fill="#FFFFFF" mask="url(#mask-6)"></path>
                        </g>
                        <g id="wave" transform="translate(0.000000, 20.000000)">
                            <mask id="mask-8" fill="white">
                                <use xlink:href="#path-7"></use>
                            </mask>
                            <g id="Clip-2"></g>
                            <path d="M0.374247303,6.37014105 C3.67524181,3.48368914 6.73525239,0.299845224 11.6794661,0.15035405 C16.212875,0.0135855304 19.7014812,1.76772132 22.9830676,4.69711218 C25.2538154,6.72319467 27.8625876,8.81448076 30.699405,9.69552448 C34.8818508,10.9932351 38.5241044,9.09437913 41.783048,6.15226562 C44.21553,3.95601764 47.0086792,1.72637269 50.0541337,0.699018462 C55.0630411,-0.988323395 59.6433529,0.689476473 63.4521928,4.41244281 C66.0836078,6.98400906 68.6438598,9.69234382 72.795576,9.99450683 C77.0378634,10.3046215 80.2127053,8.590244 82.984829,5.66244347 C87.3726772,1.02503645 92.5999257,-1.37000299 98.9916603,1.00118147 C101.204184,1.82179259 103.245269,3.39463057 105.02111,4.99450419 C112.730978,11.9347114 116.732282,12.0460346 124.534338,5.05175613 C127.354982,2.52312884 130.245172,0.420710427 134.267501,0.166257367 C139.265087,-0.151808959 143.048049,2.00627106 146.313462,5.39367743 C148.972372,8.15131247 151.9127,10.115372 156.04986,10.0469878 C160.366545,9.97542285 163.138669,7.4388439 165.847716,4.71142516 C168.951395,1.58642351 172.577475,-0.0675213826 177.112501,0.167847698 C181.712221,0.404807111 184.942053,2.91753108 187.752993,6.09819434 C188.328766,6.74863998 188.255986,7.95252102 187.83386,9.34883219 C186.801996,8.38191056 185.763662,7.41975992 184.73665,6.44647697 C179.126092,1.12363701 173.014157,1.08387872 167.528134,6.54189687 C163.183954,10.8675989 158.401475,14.0005522 151.988715,11.8536045 C149.551381,11.0377644 147.190062,9.4601554 145.302624,7.70283895 C137.859617,0.773764049 132.904082,0.546346626 125.480483,7.58833508 C121.061906,11.7788589 116.16783,13.8908193 110.269384,11.6325484 C107.870866,10.7133367 105.745679,8.85105839 103.7984,7.09374194 C96.9586617,0.915303564 91.6246686,0.878725936 84.9159351,7.18439084 C77.144608,14.488784 70.3081044,14.4681097 62.4381195,6.82338556 C59.1160995,3.59501236 55.4463511,1.57847185 50.8628046,2.96683136 C48.5338325,3.67293861 46.2727887,5.21396996 44.4743047,6.89017949 C36.4264122,14.3917738 29.4961028,14.4903743 21.6681687,6.94743143 C15.4284643,0.934387543 9.71277855,0.953471523 3.44396194,6.99673171 C2.44444474,7.96047268 1.39802463,8.87968436 0.374247303,9.81957035 L0.374247303,6.37014105" id="Fill-1" fill="#FFFFFF" mask="url(#mask-8)"></path>
                        </g>
                        <g id="wave">
                            <mask id="mask-10" fill="white">
                                <use xlink:href="#path-9"></use>
                            </mask>
                            <g id="Clip-2"></g>
                            <path d="M0.374247303,6.37014105 C3.67524181,3.48368914 6.73525239,0.299845224 11.6794661,0.15035405 C16.212875,0.0135855304 19.7014812,1.76772132 22.9830676,4.69711218 C25.2538154,6.72319467 27.8625876,8.81448076 30.699405,9.69552448 C34.8818508,10.9932351 38.5241044,9.09437913 41.783048,6.15226562 C44.21553,3.95601764 47.0086792,1.72637269 50.0541337,0.699018462 C55.0630411,-0.988323395 59.6433529,0.689476473 63.4521928,4.41244281 C66.0836078,6.98400906 68.6438598,9.69234382 72.795576,9.99450683 C77.0378634,10.3046215 80.2127053,8.590244 82.984829,5.66244347 C87.3726772,1.02503645 92.5999257,-1.37000299 98.9916603,1.00118147 C101.204184,1.82179259 103.245269,3.39463057 105.02111,4.99450419 C112.730978,11.9347114 116.732282,12.0460346 124.534338,5.05175613 C127.354982,2.52312884 130.245172,0.420710427 134.267501,0.166257367 C139.265087,-0.151808959 143.048049,2.00627106 146.313462,5.39367743 C148.972372,8.15131247 151.9127,10.115372 156.04986,10.0469878 C160.366545,9.97542285 163.138669,7.4388439 165.847716,4.71142516 C168.951395,1.58642351 172.577475,-0.0675213826 177.112501,0.167847698 C181.712221,0.404807111 184.942053,2.91753108 187.752993,6.09819434 C188.328766,6.74863998 188.255986,7.95252102 187.83386,9.34883219 C186.801996,8.38191056 185.763662,7.41975992 184.73665,6.44647697 C179.126092,1.12363701 173.014157,1.08387872 167.528134,6.54189687 C163.183954,10.8675989 158.401475,14.0005522 151.988715,11.8536045 C149.551381,11.0377644 147.190062,9.4601554 145.302624,7.70283895 C137.859617,0.773764049 132.904082,0.546346626 125.480483,7.58833508 C121.061906,11.7788589 116.16783,13.8908193 110.269384,11.6325484 C107.870866,10.7133367 105.745679,8.85105839 103.7984,7.09374194 C96.9586617,0.915303564 91.6246686,0.878725936 84.9159351,7.18439084 C77.144608,14.488784 70.3081044,14.4681097 62.4381195,6.82338556 C59.1160995,3.59501236 55.4463511,1.57847185 50.8628046,2.96683136 C48.5338325,3.67293861 46.2727887,5.21396996 44.4743047,6.89017949 C36.4264122,14.3917738 29.4961028,14.4903743 21.6681687,6.94743143 C15.4284643,0.934387543 9.71277855,0.953471523 3.44396194,6.99673171 C2.44444474,7.96047268 1.39802463,8.87968436 0.374247303,9.81957035 L0.374247303,6.37014105" id="Fill-1" fill="#FFFFFF" mask="url(#mask-10)"></path>
                        </g>
                    </g>
                    <path d="M22.1509804,71.7636364 C22.1509804,71.7636364 15.9823529,67.2727273 12.1862745,64.4363636 C12.0676471,59.3545455 12.1862745,52.8545455 12.1862745,52.8545455 L20.727451,52.8545455 L20.727451,28.6272727 L26.6588235,28.6272727 L26.6588235,40.3272727 L30.8107843,40.3272727 L30.8107843,35.3636364 L36.504902,35.2454545 L36.504902,20.4727273 L40.8941176,20.4727273 L40.8941176,35.2454545 L48.3676471,35.2454545 L48.4862745,42.1 L45.2833333,42.1 L45.2833333,52.7363636 L131.05098,52.8545455 C127.729412,57.1090909 116.459804,71.7636364 116.459804,71.7636364 L22.1509804,71.7636364 Z" id="Shape" fill="#FFFFFF"></path>
                    <rect id="Rectangle-path" fill="#FFFFFF" x="59.4" y="42.2181818" width="14.3539216" height="8.15454545"></rect>
                    <rect id="Rectangle-path" fill="#FFFFFF" x="76.6009804" y="42.2181818" width="13.8794118" height="8.15454545"></rect>
                    <rect id="Rectangle-path" fill="#FFFFFF" x="93.8019608" y="42.2181818" width="14.1166667" height="8.15454545"></rect>
                    <rect id="Rectangle-path" fill="#FFFFFF" x="59.4" y="31.2272727" width="14.3539216" height="8.15454545"></rect>
                    <rect id="Rectangle-path" fill="#FFFFFF" x="76.6009804" y="31.2272727" width="13.8794118" height="8.15454545"></rect>
                    <rect id="Rectangle-path" fill="#FFFFFF" x="93.8019608" y="31.2272727" width="14.1166667" height="8.15454545"></rect>
                </g>
            </g>
        </g>
    </g>
</svg>