<?xml version="1.0" encoding="UTF-8"?>
<svg width="848px" height="827px" viewBox="0 0 848 827" version="1.1" xmlns="http://www.w3.org/2000/svg" xmlns:xlink="http://www.w3.org/1999/xlink">
    <!-- Generator: Sketch 42 (36781) - http://www.bohemiancoding.com/sketch -->
    <title>Creek Background</title>
    <desc>Created with Sketch.</desc>
    <defs>
        <polygon id="path-1" points="0.000500828402 -1.65266614e-13 0.000500828402 919 1224 919 1224 -2.84217094e-13"></polygon>
    </defs>
    <g id="Page-1" stroke="none" stroke-width="1" fill="none" fill-rule="evenodd">
        <g id="01-Landing">
            <g id="Creek-Background" transform="translate(-282.000000, -17.000000)">
                <mask id="mask-2" fill="white">
                    <use xlink:href="#path-1"></use>
                </mask>
                <g id="Clip-2"></g>
                <path d="M388.800652,313.021712 L372.868178,313.537104 L367.431875,314.385097 L361.201491,315.93265 L358.793142,313.183888 L365.735178,314.41121 L372.554941,311.70368 L389.234787,310.157502 L396.174075,310.58356 L393.28488,306.912589 L392.994999,301.847996 L389.211431,293.141295 L390.592145,289.533545 C392.415237,286.716065 392.125355,285.762245 392.08414,284.809799 C389.846148,284.187205 389.113888,283.76527 388.436583,283.854604 C386.477481,280.802105 386.145011,280.553342 385.675156,280.608317 C385.397639,277.264449 384.955261,276.51816 384.984112,275.689409 C385.287732,271.709202 385.09402,270.575338 384.903055,269.720473 C384.541734,266.09898 384.625539,265.740267 384.874204,265.213879 C384.7904,262.395024 384.707969,261.815036 384.293068,261.290022 C384.570585,259.464845 384.40435,258.084966 384.349396,257.227353 C385.04044,254.684748 385.246516,253.744672 385.246516,252.970896 C386.434892,249.625653 386.434892,248.935714 386.517322,248.271888 C387.939251,245.535496 388.189291,244.982995 388.547865,244.016806 C388.825381,239.484098 389.902475,238.586627 391.007046,237.258976 C392.499041,234.605047 393.10628,234.550071 393.658566,233.666344 L397.38718,225.400819 L417.155427,196.174613 L420.46914,192.404687 C423.330858,190.411835 422.708507,189.790615 423.495719,189.044326 C424.614029,186.433003 424.946499,186.225472 425.485046,185.811783 C426.934452,184.070443 427.309512,183.490454 427.68045,182.784022 C429.544757,180.587762 430.209697,179.343947 430.78946,178.80519 C432.943648,176.277704 433.192314,175.696341 433.9809,175.406347 C436.217519,172.753792 436.5074,172.877486 436.963517,172.544886 C439.532606,170.182326 439.575195,169.519874 440.319819,169.22988 C441.065816,168.939886 442.309145,168.027297 443.346398,167.197171 C445.706663,164.04709 446.203994,163.549565 447.075012,163.175733 C449.852925,161.149896 449.334986,160.84066 449.957337,160.343134 L463.48421,149.290365 L480.434702,137.763434 L512.714551,133.163382 L522.951066,132.33463 L529.831279,132.748319 L551.961166,136.685919 L567.84006,141.09081 C568.712451,142.117472 594.338771,150.740336 594.338771,150.740336 L607.130637,156.681784 L636.855135,172.544886 L653.813871,178.181221 C654.333184,178.412117 663.513213,183.302164 663.513213,183.302164 C667.431417,184.172147 668.092236,185.448947 667.390202,187.15043 L653.322035,220.274379 L655.786712,242.287835 L664.031152,241.335389 L663.323622,236.148476 L659.380689,236.669366 L663.153266,235.018735 L661.361773,221.746341 L670.201088,201.66389 L677.269517,203.199073 L682.362359,191.378025 C683.719717,191.15675 685.437023,194.071811 685.437023,194.071811 C689.090075,193.494571 689.263179,193.935747 689.099692,194.312328 C692.659323,195.048996 692.831053,195.488798 692.670314,195.865378 L687.372769,208.049263 L688.089916,217.199889 L691.624818,218.857393 L696.541807,206.531946 L700.906511,198.959109 L716.392486,206.294179 L739.08977,218.304891 L749.87857,229.166622 L752.943617,236.171841 L761.107001,249.147369 L763.633501,257.065176 L763.094954,264.154231 L766.824941,269.460715 L770.71979,274.271048 L775.61205,296.020622 L785.944734,320.894164 L802.503681,338.608557 L807.022256,342.672601 L815.118321,352.348241 L831.857242,364.508761 L870.592786,379.596712 L883.853132,382.194292 L900.483519,386.175873 C904.187404,386.618423 906.478977,387.073343 909.408013,387.625844 C912.337049,388.17972 914.198608,388.802314 916.241515,389.228372 L924.006484,389.36581 L928.82593,392.198409 L944.244586,396.457615 L953.692515,397.504893 L964.632438,402.924076 L971.786046,406.575805 C972.091039,408.293781 974.021291,410.432318 974.770036,411.364148 C975.516034,412.295978 976.428266,413.009282 977.383088,414.416647 L983.875877,423.19894 C986.023196,426.101632 989.922166,432.422409 991.236936,434.644782 C992.5572,436.875402 994.961428,441.74071 995.465629,442.65055 C995.964334,443.557641 996.512498,444.510087 996.417703,446.281664 C996.329777,448.05324 996.92053,455.867969 997.233767,460.780006 C997.233767,460.780006 1036.9626,577.75767 1036.87193,577.790655 C1036.77713,577.822266 1050.75737,573.028426 1050.75737,573.028426 L1052.81264,579.001484 C1053.23991,582.020999 1053.28525,582.444308 1053.59436,582.952829 C1055.25809,585.239798 1055.56033,586.014949 1055.69497,586.766735 C1056.44646,591.740619 1056.14284,594.696912 1055.49576,597.783771 C1054.41729,602.932201 1053.63145,607.245008 1051.84958,612.719166 C1051.25333,614.558087 1050.31774,615.54077 1049.40551,615.913227 C1048.16493,616.417625 1046.7114,616.740604 1043.77,617.732907 C1040.82997,618.729333 1035.19171,620.884362 1031.9989,622.004482 C1028.81295,623.120479 1024.9552,623.160336 1023.17607,623.703217 L995.739024,632.78375 L988.571677,635.492654 C985.668744,633.694964 984.801848,634.233721 982.8084,633.694964 C980.820447,633.157581 981.15017,630.834878 981.440051,630.172427 C978.16618,630.059727 977.503987,630.253515 977.343247,631.291172 C975.724858,635.270005 975.018702,636.391499 974.480155,637.759008 C973.942982,639.127891 973.154395,639.8302 971.248873,640.742788 C969.343351,641.654003 966.279677,643.147955 964.991011,644.515463 C963.706467,645.884347 963.83286,647.459387 964.162583,648.788413 L971.498912,672.166629 C972.053946,673.946452 970.060497,677.42226 968.597353,678.759533 C968.093152,679.218576 932.586142,691.40521 932.586142,691.40521 C928.22556,691.487673 923.910315,693.283988 922.474647,693.55749 C921.03898,693.83374 918.758398,695.756499 918.107196,695.990144 L920.923577,704.307896 C923.304449,704.12098 926.451927,702.485467 926.451927,702.485467 C928.248916,704.558033 929.453777,707.70399 929.907146,709.24742 L933.498375,709.134721 L935.982286,716.152308 L935.609974,722.368632 L937.420701,727.967859 L934.428468,733.540973 L911.40833,741.108313 L922.917025,775.282289 L898.660428,783.547815 L900.979477,789.960675 L925.128915,781.641549 L942.417373,833.143716 C944.759778,834.112655 945.567599,836.174226 945.902817,837.222878 C946.45785,840.833376 946.485327,841.027164 946.782077,841.040908 C949.694627,841.80094 949.957032,842.148659 950.469476,843.235794 L954.193968,842.275102 C954.250295,841.80094 952.994602,832.622826 952.994602,832.622826 L931.919828,769.618466 L943.696422,764.819129 C945.191165,764.214401 944.601786,760.41149 944.601786,760.41149 L936.261176,763.289443 L931.013091,764.773774 L926.950633,755.300168 C925.765005,752.2889 926.976736,749.306494 929.881043,748.366418 L948.577692,741.829863 L951.955975,739.470051 L943.023239,713.475015 L939.132511,707.83868 L940.371719,704.354625 L944.180016,697.559686 L953.987891,694.405483 L962.994815,692.282065 C966.724803,690.535227 966.085965,690.870576 967.164433,690.647926 C969.872281,689.101748 970.779018,688.586355 971.625306,688.389818 C972.368556,688.211149 987.059075,682.829074 987.059075,682.829074 L982.084384,667.683399 L978.208769,658.325241 L980.200843,653.945089 L982.776801,651.486322 L986.763698,649.666642 L993.641163,646.256804 L1030.2706,632.360441 C1033.79589,632.507499 1038.72799,630.889853 1041.68863,630.040486 C1044.65338,629.189744 1051.01565,627.49101 1053.41988,626.930262 C1058.29703,628.693593 1063.19479,632.899198 1066.63764,636.46709 C1070.075,640.029485 1073.63738,644.259829 1074.73783,645.913209 C1075.47558,647.033329 1075.77371,647.988523 1076.43727,649.273569 C1077.10221,650.55999 1077.34951,652.466256 1077.82623,653.858503 C1079.05307,658.591871 1079.26464,660.32359 1079.55727,660.344206 C1081.32816,660.417048 1082.89846,665.407424 1082.89846,665.407424 C1083.01387,665.756517 1072.00937,669.713359 1072.00937,669.713359 L1060.10089,675.726275 L1050.87278,688.989048 C1050.95933,691.697953 1051.23547,693.055841 1051.62427,693.909331 C1052.03505,696.838137 1052.46369,697.895035 1052.72747,698.387064 C1053.34157,699.536046 1054.46538,699.739454 1055.21412,701.178431 C1055.95737,702.614659 1055.93127,704.662486 1056.42998,705.822463 C1056.92593,706.98244 1056.98226,707.424991 1057.64583,709.35737 C1058.30802,711.295247 1058.35336,715.118774 1059.37687,717.574792 L1070.83886,717.963742 L1070.51463,713.808989 L1063.83362,692.915654 C1064.72662,690.256227 1065.82432,688.825497 1067.09376,687.251831 C1070.05027,684.953867 1070.821,684.100376 1071.46396,683.72517 L1074.51252,681.03001 L1086.46359,677.194113 L1092.89043,672.38653 C1095.12843,670.625948 1125.32965,677.797466 1125.32965,677.797466 L1127.04146,671.581143 L1096.95289,662.709515 L1095.32763,657.069057 L1087.23157,636.480834 L1075.13487,622.162536 C1074.83949,619.265341 1073.48213,616.45061 1072.53555,613.073756 C1071.70026,610.106468 1070.43357,607.765898 1070.10385,607.044348 C1069.27817,603.175467 1068.77534,602.786517 1067.78343,602.290365 C1066.73106,597.260132 1066.06887,596.927532 1066.17878,595.106477 C1066.29143,593.278551 1066.5085,591.123522 1066.45767,589.247493 C1066.3931,586.916543 1066.54559,585.944856 1066.54559,584.562229 C1069.7494,581.247223 1067.81777,580.30852 1068.97455,578.429742 C1069.70681,577.247775 1069.14353,575.221938 1068.48134,573.978123 C1067.81777,572.735683 1066.82174,569.334091 1066.15954,567.511662 C1065.49735,565.686484 1064.58786,562.621615 1063.42834,560.797812 C1062.26332,558.972635 1061.9336,556.567468 1062.67959,554.328602 C1063.42834,552.09111 1062.67959,549.51827 1061.9336,547.859392 C1061.1876,546.200515 1061.76736,545.543561 1061.06121,544.026244 C1058.74078,542.074624 1058.14179,541.665058 1057.39579,540.708489 C1056.5234,536.999036 1055.61116,536.3572 1054.57529,536.108437 C1053.54078,535.861049 1052.01032,535.028174 1051.01565,534.328614 C1048.83674,531.405307 1046.49708,527.772818 1045.7291,525.80608 C1046.57676,521.867105 1046.93122,520.68926 1047.53159,519.486677 C1048.13058,518.284094 1049.40001,514.907241 1049.91521,513.597456 C1050.4304,512.293169 1051.94575,508.767882 1052.61206,507.482836 C1054.2277,503.109557 1055.13444,501.141444 1055.2416,500.271461 C1056.60445,496.207417 1056.8751,495.85695 1058.07996,495.896807 C1059.27933,495.936664 1060.93756,495.83496 1062.01328,495.83496 C1066.71732,495.252222 1069.1243,495.252222 1071.50517,495.418522 C1073.88742,495.584822 1075.98116,495.874817 1078.42523,495.50236 C1080.12055,495.241227 1081.03828,495.730507 1082.90396,495.958654 C1087.31263,495.48037 1088.80737,495.730507 1090.50544,495.874817 C1092.20351,496.020501 1096.10248,495.751123 1097.92145,495.418522 C1099.21012,495.187626 1099.74592,496.105713 1101.42613,495.730507 C1104.84425,495.97927 1105.87739,495.66866 1106.77176,496.229407 C1107.66201,496.784657 1108.69789,497.327537 1110.31353,497.781083 C1111.93054,498.237377 1112.51031,499.356123 1114.45842,500.417145 C1115.80066,501.144192 1117.93974,501.699442 1120.6943,502.030668 C1123.45023,502.363268 1123.44061,502.194219 1125.84484,502.833306 L1129.40172,493.209893 C1127.51544,492.232708 1126.64167,491.915226 1126.01794,491.520779 C1121.8758,490.487244 1120.0431,490.812973 1118.62391,490.300329 C1115.02032,488.165915 1113.77424,487.543321 1112.71776,487.250578 C1110.19263,485.905059 1110.04013,485.927049 1109.57028,485.386918 C1106.31564,483.586479 1105.75374,483.398189 1105.01049,483.189283 C1103.01979,483.253879 1096.53662,480.931176 1096.53662,480.931176 C1092.85059,480.953166 1092.12383,480.764875 1091.20747,480.641181 C1088.95162,479.841292 1086.77545,479.371253 1086.14486,479.258554 C1082.114,479.077136 1082.0824,478.558994 1081.40097,478.547999 C1080.7168,478.537004 1070.63278,479.51144 1070.63278,479.51144 C1069.48425,478.866856 1066.94538,478.917708 1065.57703,478.505394 C1064.21418,478.094454 1054.38844,476.722822 1054.38844,476.722822 L1041.9208,467.933657 L1019.7497,445.921576 L1008.47456,429.255836 C1007.23535,426.603281 1006.07308,424.324558 1003.41881,421.919392 C1001.70426,420.362218 1000.68486,418.644242 999.316515,417.645068 C997.950913,416.652765 998.771099,415.749797 997.196673,414.631051 C995.620873,413.51093 995.712921,412.716538 994.344572,411.265192 C992.653369,409.471626 992.811361,407.201149 991.735641,406.001314 C990.657173,404.795982 990.037569,403.016159 988.913765,401.769596 C985.932522,397.78939 985.558836,397.706927 984.522958,395.966961 L977.273181,389.210505 C974.742559,385.518919 973.044487,384.899073 970.476772,384.233873 C967.904935,383.570047 965.750747,382.617601 963.056638,382.037613 C960.626308,381.512599 958.624616,380.381484 956.550111,380.048884 C954.478354,379.716284 954.891881,378.803695 953.193809,378.553557 C951.494364,378.304795 950.547785,378.038165 948.264455,377.477417 C947.054098,377.179177 945.421971,376.79435 943.858536,376.698144 C941.800517,376.575824 939.802947,376.799848 938.437346,376.739375 C937.482524,376.698144 880.03934,366.634928 880.03934,366.634928 L857.081026,358.759727 L846.639808,354.01399 C845.536611,353.512341 844.147654,352.950219 843.142,352.20668 L826.333013,339.440057 C821.899617,336.164908 818.915627,335.709988 816.095124,332.889759 L805.862731,321.861728 L798.816283,315.228967 L792.808461,301.589613 C792.18611,300.015947 791.853639,297.734475 791.729993,296.907098 C791.607721,296.076972 791.853639,293.035467 791.853639,293.035467 L785.417178,276.65285 L782.797257,269.734217 L778.705948,263.796892 L780.030334,258.043735 L775.445815,247.26859 L772.075775,237.816974 L766.216328,226.76283 L758.09416,216.093513 L752.734793,209.958277 C751.299125,207.028098 748.764382,205.308748 747.161106,204.479996 C745.560577,203.64987 744.780233,203.05064 743.176957,201.721614 C741.575054,200.395337 737.042741,197.909082 735.332305,197.190281 C733.616373,196.47148 733.616373,196.857681 731.350904,195.420078 C729.086808,193.983851 728.534523,194.315076 727.097481,193.210074 C725.661814,192.105072 724.33468,191.274946 722.180492,190.612495 C720.02493,189.948669 717.650927,189.119917 716.049024,187.73729 L676.457575,170.365118 C680.410126,168.199094 682.89541,165.710091 685.325741,164.354952 C687.75882,163.001187 690.10672,162.558636 691.737473,162.007509 C693.365479,161.453634 694.74894,160.182332 695.217421,159.574856 C695.687276,158.966005 696.045849,158.773592 698.367646,157.641102 L713.615946,150.510815 C714.437505,150.083382 722.485486,146.419284 722.485486,146.419284 C724.059911,144.844243 727.266464,143.214228 729.033228,142.495427 C730.799992,141.776626 733.230323,140.448974 735.55212,139.496528 L731.769926,137.990207 L737.875291,133.430012 L742.429585,132.573772 C746.76956,133.016323 747.875505,132.488561 749.283695,131.661184 C750.691886,130.832432 754.698016,126.879713 754.698016,126.879713 L759.947476,124.253272 L767.129935,116.266745 L772.213159,109.192808 L775.142195,103.277473 L775.389487,96.7546627 L776.826529,91.5031541 L796.938238,50.2703588 L805.365399,52.4240134 L806.746113,43.1936726 L785.833453,37.5573374 L781.107428,36.4220989 L778.373478,45.3775635 L787.296597,48.1675563 L780.335327,63.2032812 C778.843332,65.5795854 777.821192,67.1546257 777.517572,68.1785393 C775.61205,71.9374705 775.998101,72.1298838 775.5832,72.6837592 C775.169672,73.2362602 767.627266,89.3494995 767.627266,89.3494995 L762.214319,101.564995 L756.881055,109.606497 L751.106787,116.570484 L748.39894,119.0856 L739.503297,124.55701 C738.647392,124.99956 735.847497,125.330786 735.847497,125.330786 C734.907787,126.754645 733.84031,127.708465 733.066836,128.178503 L735.054788,131.908572 L729.945461,136.193891 L720.66102,136.000103 L716.656264,136.775254 L710.357187,139.372834 L707.621863,141.776626 L702.842258,144.264255 L687.397499,150.288165 L682.992953,153.963259 L654.35654,160.929995 L596.839168,134.148813 L579.848834,127.970971 L569.847246,123.618308 L564.597787,122.401981 L559.790705,122.401981 L553.98896,120.245578 L537.526182,116.37807 C535.786895,115.9795 532.383882,116.654321 529.568875,116.599346 L524.649138,116.488021 C521.887711,116.54437 519.399679,115.990495 516.858066,116.37807 L503.599094,118.035573 C502.662132,118.164765 499.950163,117.979224 498.570823,118.366799 C497.187362,118.754375 495.531879,118.423149 493.542552,118.97565 C491.553226,119.528151 491.38699,118.80935 488.735471,119.473176 C487.409711,119.804401 483.817107,120.356902 482.050343,120.799453 C480.282206,121.242004 479.286168,119.638101 477.298216,120.413252 C475.863922,120.971251 473.264608,121.794505 471.551424,122.237055 C469.83824,122.679606 468.678716,123.563333 468.015149,124.447059 C467.352956,125.332161 464.921251,126.160912 462.352162,127.793676 C461.019533,128.637546 458.373508,129.838755 456.771606,130.942383 C455.168329,132.048759 450.417575,134.3426 447.930917,135.586415 C445.445632,136.828855 441.023227,139.925335 438.040611,141.832975 C435.057994,143.739241 432.928535,144.375579 431.466765,145.230444 C430.000873,146.088058 428.980106,146.779371 427.596645,147.081735 C423.094557,148.215599 423.979313,148.906913 423.012126,150.23319 C422.04494,151.559467 420.911518,151.145779 419.005996,152.279643 L415.579628,154.158421 C413.621899,155.24968 412.320869,155.153473 410.108979,154.710922 C407.898464,154.268372 406.352889,153.992121 402.099466,153.357157 C397.843296,152.720819 395.384114,151.947043 389.846148,150.773322 C388.292329,148.15925 388.043664,147.621867 385.39077,146.192511 C382.73925,144.76178 382.283134,144.367333 380.874943,142.39922 C379.464005,140.429732 379.340359,139.496528 379.257928,137.007525 C379.185115,134.83188 379.889897,132.29065 380.068497,131.690046 C380.396845,130.086143 382.241919,124.282134 382.241919,124.282134 C382.634838,122.604015 382.077057,121.712042 382.552407,120.301927 C383.029131,118.891813 384.148815,116.156795 384.581576,115.597422 C385.39077,113.772244 385.142104,113.439644 386.757745,112.467957 C388.373386,111.492147 388.498406,111.389068 390.178618,111.575984 C391.856082,111.7629 392.435844,111.659821 395.191776,112.072136 L400.040073,103.781871 L403.290589,99.3728579 C398.898409,96.8934752 398.58792,96.1678022 397.384432,95.7733549 C396.182318,95.380282 394.981578,94.8195347 393.717641,93.8450988 C392.453704,92.8720372 392.081392,91.2543912 392.474312,89.8442766 C393.261525,87.1518648 394.463639,84.8923829 396.907708,84.6216299 C399.353151,84.3522513 400.821791,84.1996951 401.920866,84.4690737 C405.715425,82.3923844 407.204672,79.6092635 407.041185,77.2013485 L407.156588,69.0718867 C407.126363,67.9407714 404.775715,68.0026186 404.713892,65.4984969 L398.210113,63.9688112 L406.580947,44.9941113 L411.026707,41.7203365 L410.537619,37.7497507 L414.315691,32.3443114 C416.607263,29.4732301 415.93408,29.0760341 417.064754,28.6499761 C418.194054,28.2211693 419.475851,27.2439846 420.881294,27.1519011 C422.285363,27.0598176 424.513738,27.0309556 426.253025,26.7547051 C427.99506,26.479829 428.88119,26.4207306 429.705496,25.7459097 L431.591785,20.0064959 L426.258521,18.4699383 L422.584861,17.5683445 L416.735031,15.4600445 L424.069986,15.7184281 L427.728534,15.7582852 L432.939526,17.9462992 L432.835114,9.88693082 L432.852974,16.1279936 C435.125313,15.241518 435.683094,14.3701607 435.776515,13.9138663 C436.718972,12.3800574 437.610597,9.70688695 437.610597,9.70688695 L431.613766,8.86851473 L423.220951,7.4680208 L429.933555,8.55515593 L434.772235,8.87813539 L439.164415,8.86851473 C441.70328,6.8055693 444.442726,5.47929193 446.868935,5.56175477 C446.753532,3.67610446 440.775935,1.61315903 440.775935,1.61315903 L436.860478,2.68105283 C435.005788,2.27698491 446.660111,1.65439045 446.660111,1.65439045 L448.341696,-2.77936167 L432.788403,-10.4387853 C431.661851,-10.719159 443.122461,-9.82443712 443.122461,-9.82443712 L451.16632,-7.36979319 L454.403098,-9.6691321 C451.425977,-11.2991476 450.553586,-11.7348263 449.470996,-11.8681412 C448.389781,-12.0042049 445.944338,-12.9497788 444.626821,-13.0858425 C443.310678,-13.2191574 440.869356,-13.788151 439.832104,-14.2911744 C437.798814,-17.4495012 438.052975,-18.6575819 438.965208,-20.3425726 C439.877441,-22.0303121 441.75686,-24.3530155 443.16505,-25.0292108 C444.574615,-25.7067804 446.06661,-25.5404804 448.167218,-24.9591173 C450.263705,-24.3805031 451.589464,-23.9090905 452.516809,-24.4341039 C453.442781,-24.9591173 455.804419,-25.8593367 455.804419,-25.8593367 C454.326163,-26.2043063 441.936833,-31.207052 441.936833,-31.207052 L449.209966,-46.4722984 C451.524894,-48.7029182 452.645951,-50.059432 453.745026,-51.279882 C456.06545,-54.644366 456.440509,-55.2326009 456.597127,-56.0792194 L479.315019,-100.244943 L517.63841,-79.6993261 L548.499078,-71.2455104 L551.047559,-80.2215907 L519.325491,-88.5956923 L492.45172,-103.810087 L501.319886,-115.625637 L503.513915,-118.569561 L507.687655,-122.272143 L513.986731,-123.543445 L512.273547,-118.485724 C513.324538,-118.043173 518.848767,-123.70837 518.848767,-123.70837 L518.848767,-147 L311.662034,-147 L311.662034,-120.881269 L276.288287,-64.7158277 L265.963846,-43.268617 L249.245533,-17.7889733 L240.953008,-8.34560349 L239.08458,-4.0163043 L235.248806,2.08319723 L232.725054,7.03509088 L222.661643,20.5466275 L213.312632,46.4908119 L211.736832,55.9712899 L206.792366,88.8877076 C204.026817,107.569664 203.311044,113.759875 199.55358,129.015501 L200.382008,186.890672 L202.426289,210.519025 L195.603777,211.016551 L167.865858,195.704575 C165.850428,202.061086 166.015289,208.420345 166.236478,214.389281 L171.568369,214.306818 L188.081979,222.944801 C188.474898,225.356839 188.845836,227.065194 188.07511,228.454693 C187.303009,229.846941 185.657143,230.435175 184.20499,229.929403 L167.905699,222.085813 L184.580049,311.202031 C185.467553,315.843315 185.17355,317.081632 188.393841,321.483773 C192.292812,326.816371 196.790779,332.981842 206.51485,341.714657 C218.23649,352.23829 222.981749,368.964503 221.268565,380.517547 L218.831365,402.69318 L217.002778,408.516431 C220.012871,408.765194 220.407165,408.967228 220.210705,410.00626 C220.012871,411.049415 219.677653,413.352877 219.281986,415.664585 C218.887693,417.973545 218.577204,421.852047 218.354641,423.706086 C218.129331,425.566998 217.369595,429.478485 217.256939,430.994427 C217.145658,432.514492 216.695037,435.216525 216.300744,437.297337 C215.90645,439.383647 215.711364,441.406735 215.738841,442.926801 C212.870254,459.894905 210.106079,476.365483 208.560504,484.879771 L191.211596,579.841231 C186.680657,604.050947 181.155055,623.503931 172.712781,654.769718 C170.630033,662.484117 167.49492,674.33815 165.904008,678.892848 L138.167462,758.652283 C135.02548,767.543151 133.871451,770.882897 129.395466,779.507135 C124.919481,788.13 117.460879,795.294646 107.308169,804.619819 C103.336384,808.235815 99.2258417,808.938124 93.5930795,809.438398 L61.6402055,812.16517 L44.5688144,815.198428 L45.3134381,824.568955 L-12.5267868,832.493634 L-30.9994992,832.493634 L-30.9994992,924.893249 L-7.70184511,924.893249 L6.19321759,923.484508 L6.35945277,927.881152 C8.4037333,927.159602 9.17858157,927.213203 9.8132977,927.29704 C10.4507615,927.379503 13.7095205,925.280824 13.7095205,925.280824 L17.2183192,925.224474 L23.5723498,927.406991 L24.3169735,919.283027 L51.8062269,917.378135 L63.658383,918.510625 L75.7990463,921.326731 L80.588268,920.712383 L82.2327598,916.017498 L81.2669472,925.59968 L91.2671609,927.795941 L95.9272412,925.664276 L92.9336342,939.252778 L95.7129215,942.027653 L100.557097,949.839633 L103.089092,955.49246 L115.000324,958.114779 L112.427113,980.746706 L118.884182,985.503437 L125.570683,968.613673 L136.079219,947.806924 L122.956257,990.805798 L127.980406,997.966321 L140.504372,1009.2225 L142.669551,1012.62547 L146.696289,1014.0026 L150.213331,1011.89842 L165.600388,1019.21837 L161.926728,1026.54382 L168.778091,1030.02925 L171.153468,1027.37395 L174.71722,1028.22744 L177.31516,1031.29505 L183.281766,1035.85662 L194.636591,1050.14743 L201.184333,1055.06497 L200.023435,1045.58724 L188.090222,1031.68538 L183.780472,1027.8165 L180.139784,1021.63178 L182.935558,1019.35031 L189.795163,1017.40144 L195.223222,1023.68236 L226.441089,1058.91461 L229.805635,1060.16529 L232.975094,1057.28597 L201.397279,1018.52156 L204.734347,1015.43333 L196.715217,1006.20848 L201.356064,1000.88001 L208.311838,991.443511 L196.30169,977.933348 L198.586393,974.336594 L204.609327,978.648026 L210.935881,971.12879 L205.583383,966.304713 L207.648271,963.28245 L220.688803,973.727743 L226.739214,974.640332 L229.433323,971.365183 L227.015356,965.768705 L197.066921,940.728863 L185.547236,931.690936 L186.128372,921.554878 L201.002986,910.776984 L164.286993,874.876786 L170.71109,867.993888 L225.06175,920.209359 L228.852186,895.000468 L197.419999,848.011767 L205.149248,842.621446 L234.985028,885.32208 L242.361199,893.512014 L240.807381,915.480115 L238.072057,929.97296 L243.729548,930.364658 L243.127804,939.566137 L289.625569,977.933348 L292.110854,963.757986 L259.351533,936.831119 L260.118138,927.08676 L260.553647,908.661813 L259.766434,891.997447 L249.447489,867.621431 L249.137,855.082956 L248.039298,836.383132 L254.420805,814.331193 C250.483367,812.049722 249.8198,811.50959 249.572508,810.930976 C252.597714,808.235815 252.182813,807.323226 253.038718,807.185788 L251.822866,803.591783 L256.797556,799.722901 L258.066989,795.908995 C258.840463,794.692668 259.8365,792.813889 260.112643,790.768811 C260.387412,788.722358 258.509366,788.612408 259.449076,786.403778 C261.961838,783.31417 263.099381,782.653093 263.473066,782.035996 C263.923687,778.890038 264.12839,778.495591 264.709526,777.709445 C265.495365,774.054967 265.384084,773.569811 265.756396,772.820773 C267.751218,769.263876 267.762209,768.209726 267.799303,767.495048 C267.836396,766.783119 270.983874,753.903797 270.983874,753.903797 C274.298961,754.525018 275.31011,754.674825 275.722263,753.982137 C276.133043,753.289449 273.175156,751.281479 273.175156,751.281479 L273.867573,747.703966 L270.777797,745.964 L295.30779,665.184775 C298.556932,664.996485 297.794448,663.813143 297.504567,661.453331 C298.209349,658.671585 298.622877,658.009133 298.996562,656.97285 C299.535109,655.474775 297.214686,653.035249 297.214686,653.035249 L304.548268,639.60755 C306.538968,639.60755 306.746419,637.739767 307.489669,636.622395 L307.999365,631.882156 L297.918094,625.080346 L297.260023,619.703769 L298.566549,623.77331 L308.702773,630.612228 L312.505575,623.686724 C316.443013,622.694421 317.974849,621.447858 319.176963,620.782658 C320.329619,620.149068 323.062195,615.51878 323.062195,615.51878 L311.793923,607.266998 L306.817859,604.563591 L312.993289,605.599874 L323.483966,614.80685 C324.467638,613.158968 327.212579,609.438519 328.626265,608.345887 C330.077045,607.227141 333.017072,603.41186 333.514404,602.628463 C327.16999,592.430558 329.73221,581.942659 335.044867,575.084499 L325.058391,566.846462 L346.093324,581.674655 L348.93306,578.064157 L349.233932,573.498464 L349.824685,569.699676 L345.508066,565.965484 L345.933958,562.003144 L350.25882,569.187032 L353.249679,565.635632 L359.787805,551.306339 L361.784001,548.295071 C364.743262,546.611455 365.144424,545.129872 365.693962,544.641967 C368.36609,541.102937 368.408679,541.146917 369.401968,540.110634 C370.398006,539.074351 370.852748,538.038068 371.43251,536.917948 C372.013647,535.799202 372.023264,534.591121 373.425959,533.410528 C375.633727,530.129881 376.058245,527.069135 376.964982,525.654898 C377.870346,524.237911 378.29349,522.117242 378.718008,521.292613 C379.255181,517.275299 379.936608,516.112573 380.247096,515.121644 C381.691007,511.840997 381.945168,511.583988 381.266489,511.017743 C380.898299,509.092236 381.140095,508.105431 381.634679,506.912468 C384.606305,504.734075 385.341312,502.495209 385.778194,501.096089 C387.5848,497.958378 387.862316,497.212089 388.306068,495.905053 C388.74982,494.598017 389.916214,493.150794 390.509714,492.114511 C392.885091,489.907256 393.768473,487.089775 393.603612,486.093349 L396.587602,469.122497 L388.409106,462.436134 L390.950718,458.678578 L394.433414,460.004855 C395.205515,460.281106 396.863745,461.329758 399.405357,462.216234 C401.946969,463.09996 402.610536,459.948505 407.195055,460.501006 C409.938623,460.830858 411.67104,461.993584 413.825228,462.272583 C415.982164,462.546085 417.805256,463.32261 420.015772,464.591163 C422.224913,465.86384 425.042668,467.412767 428.580318,468.902596 C432.11522,470.397922 436.260108,471.887751 437.915591,472.548828 C439.575195,473.214028 443.662382,474.376754 445.267032,475.315456 C446.868935,476.255532 449.133031,477.638159 451.343546,478.134311 C453.552688,478.630462 455.155965,479.95674 457.198871,480.345689 C459.244526,480.733265 459.976785,480.08868 461.014037,479.020786 C462.099374,477.89242 462.595332,475.363559 463.166852,473.383077 C463.83454,471.063122 462.614566,470.505124 462.837129,469.071644 C462.117234,464.481213 461.564949,463.708811 460.40405,463.209911 C459.2459,462.712385 457.531342,460.997158 456.538052,459.894905 C455.540641,458.788528 454.38249,458.234653 454.438818,456.74345 C449.020375,455.411675 446.315276,456.189574 445.099423,455.747024 C443.883571,455.301724 442.170387,455.473522 440.569858,455.473522 C438.965208,455.473522 436.092499,456.8534 434.048219,457.132399 C432.005312,457.403152 433.274744,456.299525 430.623224,456.299525 C427.971705,456.299525 429.242511,457.513103 425.981004,458.068353 C423.993051,456.522174 423.495719,455.966925 423.330858,454.257195 C423.164623,452.541968 422.501056,451.435591 422.501056,450.275614 C422.501056,449.114262 422.943434,445.186282 422.832153,443.693705 C418.411121,444.633781 414.986127,445.076332 413.385598,445.076332 C409.24071,444.19398 410.011436,445.186282 408.299626,445.850108 C406.587816,446.518057 404.267393,445.577981 402.940259,445.906458 C401.615873,446.239058 400.012596,446.239058 398.465648,446.292659 C397.249795,443.527405 397.249795,442.481501 396.808791,440.876225 C396.366413,439.276445 395.980363,438.05737 396.69751,435.624716 C397.41603,433.193436 397.41603,430.430931 397.41603,428.385853 C397.41603,426.3394 398.078223,425.676948 399.019307,424.573321 C399.957643,423.46557 400.268131,422.801744 400.842398,420.039239 C400.990774,419.320438 401.200972,412.040343 401.200972,412.040343 C404.533918,405.762172 405.598648,397.465036 405.924249,393.836671 C406.256719,390.150582 407.479441,387.52414 407.572862,384.710783 C407.653919,382.252016 408.428767,380.982088 408.454871,378.851798 C408.483721,376.724257 408.151251,375.84053 407.710247,374.320465 C407.267869,372.8004 406.932651,368.842183 406.795266,366.801228 C406.657882,364.754775 406.865332,362.342737 406.174289,360.136856 C405.483245,357.924103 406.104223,357.100849 405.745649,355.301785 C405.422796,352.463689 405.060101,352.269901 404.642452,351.850715 C403.818146,348.581063 403.74121,348.031311 403.252122,346.655556 C403.139466,346.131917 396.028448,345.7251 396.028448,345.7251 L392.161075,348.622295 L386.689053,349.514268 L383.019515,352.253408 L385.289106,348.557699 L390.876531,347.267155 L395.555845,343.833952 L403.748079,342.966718 L401.632359,323.571458 L398.216982,315.984876 L388.800652,313.021712 Z" id="Fill-1" fill-opacity="0.454908288" fill="#3371B3" opacity="0.537371735" mask="url(#mask-2)"></path>
            </g>
        </g>
    </g>
</svg>