<?xml version="1.0" encoding="UTF-8"?>
<svg width="13px" height="15px" viewBox="0 0 13 15" version="1.1" xmlns="http://www.w3.org/2000/svg" xmlns:xlink="http://www.w3.org/1999/xlink">
    <!-- Generator: Sketch 41.2 (35397) - http://www.bohemiancoding.com/sketch -->
    <title>Icon-Pamphlet</title>
    <desc>Created with Sketch.</desc>
    <defs></defs>
    <g id="Page-1" stroke="none" stroke-width="1" fill="none" fill-rule="evenodd">
        <g id="01-Landing" transform="translate(-1038.000000, -316.000000)" fill="#FFFFFF">
            <g id="Icon-Pamphlet" transform="translate(1038.000000, 316.000000)">
                <path d="M0,-0.0001 L0,14.8569 L13,14.8569 L13,4.2589 L8.741,-0.0001 L0,-0.0001 Z M1.858,1.8579 L7.973,1.8579 L11.143,5.0269 L11.143,12.9999 L1.858,12.9999 L1.858,1.8579 Z" id="Fill-1"></path>
                <polygon id="Fill-2" points="3.714 7.4281 9.286 7.4281 9.286 6.4991 3.714 6.4991"></polygon>
                <polygon id="Fill-3" points="3.714 5.5711 7.428 5.5711 7.428 4.6421 3.714 4.6421"></polygon>
                <polygon id="Fill-4" points="3.714 9.2861 9.286 9.2861 9.286 8.3571 3.714 8.3571"></polygon>
                <polygon id="Fill-5" points="3.714 11.1431 9.286 11.1431 9.286 10.2141 3.714 10.2141"></polygon>
            </g>
        </g>
    </g>
</svg>